<svg width="240" height="300" viewBox="0 0 240 300" xmlns="http://www.w3.org/2000/svg">
  <defs>
    <style>
      .front { fill: #ffffff; stroke: #000; stroke-width: 2; }
      .top   { fill: #eeeeee; stroke: #000; stroke-width: 2; }
      .side  { fill: #cccccc; stroke: #000; stroke-width: 2; }
    </style>
  </defs>

  <!-- Block 1 -->
  <polygon class="top"  points="60,20  80,0   200,0  180,20"/>
  <polygon class="side" points="180,20 200,0   200,60 180,80"/>
  <rect    class="front" x="60" y="20"  width="120" height="60"/>

  <!-- Block 2 -->
  <polygon class="top"  points="60,120 80,100 200,100 180,120"/>
  <polygon class="side" points="180,120 200,100 200,160 180,180"/>
  <rect    class="front" x="60" y="120" width="120" height="60"/>

  <!-- Block 3 -->
  <polygon class="top"  points="60,220 80,200 200,200 180,220"/>
  <polygon class="side" points="180,220 200,200 200,260 180,280"/>
  <rect    class="front" x="60" y="220" width="120" height="60"/>
</svg>
